<svg xmlns="http://www.w3.org/2000/svg" viewBox="0 0 800 400" fill="none">
  <defs>
    <linearGradient id="sea" x1="0" y1="200" x2="0" y2="400">
      <stop offset="0%" stop-color="#0d2137"/>
      <stop offset="100%" stop-color="#061018"/>
    </linearGradient>
    <linearGradient id="hull" x1="0" y1="0" x2="1" y2="0">
      <stop offset="0%" stop-color="#3d2817"/>
      <stop offset="50%" stop-color="#5c3d1e"/>
      <stop offset="100%" stop-color="#3d2817"/>
    </linearGradient>
  </defs>
  <rect width="800" height="400" fill="url(#sea)"/>
  <path d="M0 280 Q200 260 400 270 T800 280 L800 400 L0 400 Z" fill="#0a1520" opacity="0.6"/>
  <path d="M0 300 Q150 290 300 295 T600 300 T800 295 L800 400 L0 400 Z" fill="#00ffcc" opacity="0.05"/>
  <g transform="translate(400,200)">
    <path d="M-200 80 L200 80 L160 20 L-160 20 Z" fill="url(#hull)" stroke="#c9a227" stroke-width="2"/>
    <path d="M-180 80 Q0 100 180 80" fill="none" stroke="#2a1a0a" stroke-width="3"/>
    <rect x="-8" y="-120" width="16" height="140" fill="#4a3020" stroke="#c9a227" stroke-width="1"/>
    <path d="M-120 -100 L120 -100 L80 -120 L-80 -120 Z" fill="#1a1a2e" stroke="#c9a227" stroke-width="2"/>
    <path d="M0 -120 L0 -180 L-60 -100 Z" fill="#2a1a2e" stroke="#ff00ff" stroke-width="1" opacity="0.9"/>
    <path d="M0 -120 L0 -180 L60 -100 Z" fill="#1a1a2e" stroke="#00ffcc" stroke-width="1" opacity="0.9"/>
    <circle cx="0" cy="-175" r="6" fill="#ff00ff"/>
    <text x="0" y="-60" text-anchor="middle" fill="#c9a227" font-family="serif" font-size="28" font-weight="bold"> </text>
    <ellipse cx="-140" cy="50" rx="30" ry="8" fill="#0d2137" opacity="0.5"/>
    <ellipse cx="140" cy="55" rx="25" ry="6" fill="#0d2137" opacity="0.5"/>
  </g>
  <text x="400" y="50" text-anchor="middle" fill="#c9a227" font-family="serif" font-size="14" opacity="0.6">TRIP SHIP SOUND SYSTEM</text>
</svg>
